<svg width="191" height="19" viewBox="0 0 191 19" fill="none" xmlns="http://www.w3.org/2000/svg">
<path d="M0.905543 18.501C0.301848 18.501 0 18.3391 0 18.0152C0 17.7613 0.167177 17.6344 0.501532 17.6344L1.18417 17.7001C1.74143 17.7001 2.11758 17.4068 2.31262 16.8203C2.47051 16.3214 2.54945 15.4285 2.54945 14.1417V4.87146C2.54945 3.58466 2.48444 2.7443 2.35441 2.35038C2.22439 1.94771 2.0665 1.67634 1.88074 1.53628C1.70428 1.38747 1.47209 1.31306 1.18417 1.31306L0.501532 1.36558C0.167177 1.36558 0 1.23865 0 0.984796C0 0.660908 0.25541 0.498963 0.766229 0.498963C1.27705 0.498963 1.76 0.533978 2.2151 0.604008C2.67948 0.674038 3.16244 0.709053 3.66397 0.709053C4.1655 0.709053 4.64381 0.674038 5.09891 0.604008C5.56329 0.533978 6.15305 0.498963 6.8682 0.498963C7.59263 0.498963 8.36815 0.608385 9.19475 0.827229C10.0213 1.04607 10.7179 1.35683 11.2845 1.7595C12.464 2.59111 13.0538 3.69408 13.0538 5.06842C13.0538 6.59157 12.3897 7.90463 11.0616 9.0076C10.6343 9.35775 10.1607 9.65538 9.64055 9.90048L14.1683 16.0981C14.6791 16.8072 15.241 17.2361 15.854 17.3849C16.0304 17.4287 16.2533 17.4637 16.5227 17.49C16.9964 17.5337 17.2332 17.6826 17.2332 17.9364C17.2332 18.1815 16.9778 18.3041 16.467 18.3041H13.7921C13.1513 18.3041 12.5708 17.9102 12.0507 17.1223L8.53997 11.8307C8.22419 11.3667 7.92234 11.0385 7.63443 10.8459C7.34651 10.6446 6.90071 10.5439 6.29701 10.5439C5.7026 10.5439 5.18249 10.557 4.73669 10.5833V14.1417C4.73669 15.4635 4.79706 16.317 4.9178 16.7021C5.04782 17.0786 5.20107 17.3412 5.37753 17.49C5.56329 17.63 5.80477 17.7001 6.10197 17.7001L6.77068 17.6344C7.10503 17.6344 7.27221 17.7613 7.27221 18.0152C7.27221 18.3391 6.97501 18.501 6.3806 18.501C6.07411 18.501 5.74904 18.4748 5.4054 18.4223C4.29088 18.2559 3.33426 18.2253 2.53552 18.3303C1.74607 18.4441 1.20275 18.501 0.905543 18.501ZM4.73669 9.42778C5.34038 9.48906 5.92086 9.5197 6.47812 9.5197H7.3558C8.2567 9.5197 9.01828 9.23082 9.64055 8.65308C10.365 7.97904 10.7272 7.05989 10.7272 5.89565C10.7272 4.49505 10.2768 3.3877 9.37586 2.5736C8.53068 1.80327 7.44403 1.41811 6.1159 1.41811C5.64223 1.41811 5.29395 1.47938 5.07104 1.60194C4.84814 1.72449 4.73669 1.93458 4.73669 2.2322V9.42778Z" fill="white"/>
<path d="M18.8632 18.501C18.3523 18.501 18.0969 18.3391 18.0969 18.0152C18.0969 17.7613 18.2641 17.6344 18.5985 17.6344L19.2811 17.7001C19.8012 17.7001 20.1541 17.49 20.3399 17.0698C20.5442 16.5883 20.6464 15.6254 20.6464 14.1811V4.87146C20.6464 3.43584 20.5721 2.53421 20.4235 2.16655C20.2842 1.79014 20.1263 1.55379 19.9498 1.4575C19.7734 1.36121 19.5505 1.31306 19.2811 1.31306L18.5985 1.36558C18.2641 1.36558 18.0969 1.23865 18.0969 0.984796C18.0969 0.660908 18.3431 0.498963 18.8353 0.498963C19.3368 0.498963 19.7455 0.512094 20.0613 0.538355C20.3863 0.555863 20.7114 0.577747 21.0365 0.604008C21.9002 0.674038 22.5782 0.709053 23.0705 0.709053C23.572 0.709053 24.1014 0.7003 24.6586 0.682792C25.2159 0.656531 25.8382 0.63027 26.5255 0.604008C28.3365 0.533978 29.5904 0.498963 30.2869 0.498963C30.9928 0.498963 31.3829 0.538355 31.4572 0.617139C31.5408 0.695923 31.5826 0.805344 31.5826 0.945404C31.5826 1.07671 31.5779 1.20364 31.5686 1.32619C31.5686 1.44874 31.564 1.58443 31.5547 1.73324C31.5454 1.93458 31.5176 2.23658 31.4711 2.63925C31.4247 3.03317 31.369 3.30016 31.3039 3.44022C31.2389 3.57153 31.1461 3.63718 31.0253 3.63718C30.9046 3.63718 30.821 3.61092 30.7745 3.5584C30.7281 3.49712 30.6631 3.36581 30.5795 3.16448C30.5052 2.95439 30.3659 2.75743 30.1616 2.5736C29.9665 2.38102 29.6554 2.22345 29.2282 2.1009C28.3923 1.86455 26.8459 1.74637 24.589 1.74637H23.3491C23.1262 1.74637 22.9822 1.77701 22.9172 1.83829C22.8615 1.89956 22.8336 2.03962 22.8336 2.25847V7.78645C23.9389 7.90901 24.8537 7.97028 25.5781 7.97028C26.3118 7.97028 26.8319 7.96591 27.1384 7.95715C27.4542 7.9484 27.7143 7.92214 27.9186 7.87837C28.2808 7.81709 28.5409 7.6639 28.6988 7.4188C29.0145 6.95485 29.27 6.72288 29.465 6.72288C29.7158 6.72288 29.8411 6.84543 29.8411 7.09053L29.3535 8.95508L29.4093 9.95301C29.4093 10.5833 29.2514 10.8984 28.9356 10.8984C28.6663 10.8984 28.5316 10.7321 28.5316 10.3994C28.5316 10.0581 28.5084 9.80419 28.4619 9.63787C28.4248 9.47155 28.3087 9.34024 28.1136 9.24395C27.8164 9.10389 27.092 9.03386 25.9403 9.03386C24.7887 9.03386 23.7531 9.08201 22.8336 9.1783V12.2903C22.8336 14.2248 22.8801 15.8224 22.9729 17.0829C23.7252 17.2405 24.5425 17.3193 25.4249 17.3193C26.3072 17.3193 27.0595 17.2974 27.6818 17.2536C28.3133 17.2099 28.8567 17.1223 29.3117 16.991C30.2126 16.7372 30.8767 16.2513 31.3039 15.5335C31.4897 15.2184 31.6754 15.0608 31.8612 15.0608C32.047 15.0608 32.1398 15.1877 32.1398 15.4416C32.1398 15.5466 32.1073 15.6823 32.0423 15.8487C31.968 16.0763 31.8612 16.4176 31.7219 16.8728C31.5826 17.3193 31.4758 17.6432 31.4015 17.8445C31.3272 18.0458 31.2436 18.199 31.1507 18.3041C31.0114 18.4792 30.7374 18.5667 30.3287 18.5667C29.9201 18.5667 29.5254 18.5623 29.1446 18.5536C28.7638 18.5536 28.3644 18.5492 27.9465 18.5404C27.4635 18.5229 26.7159 18.4879 25.7035 18.4354C23.1773 18.3216 21.6959 18.2822 21.2594 18.3172C20.8229 18.3522 20.4931 18.3785 20.2702 18.396C20.0473 18.4223 19.8291 18.4441 19.6155 18.4616C19.4018 18.4879 19.1511 18.501 18.8632 18.501Z" fill="white"/>
<path d="M44.093 0.906012L44.6781 0.827229C44.9382 0.827229 45.0821 1.02856 45.11 1.43124C45.1379 1.82516 45.175 2.14904 45.2214 2.4029C45.2679 2.65676 45.3143 2.88436 45.3608 3.08569C45.4072 3.28703 45.4444 3.45773 45.4722 3.59779C45.5094 3.73785 45.5279 3.85602 45.5279 3.95232C45.5279 4.03985 45.4722 4.12739 45.3608 4.21493C45.2586 4.29371 45.1471 4.3331 45.0264 4.3331C44.8128 4.3331 44.6038 4.11864 44.3995 3.6897C44.0094 2.8756 43.6843 2.35038 43.4243 2.11403C42.8206 1.60631 41.9336 1.35245 40.7634 1.35245C39.1288 1.35245 38.0328 1.81202 37.4756 2.73117C37.2991 3.0288 37.2109 3.39208 37.2109 3.82101C37.2109 4.24994 37.3177 4.65261 37.5313 5.02903C37.7542 5.40544 38.0886 5.78622 38.5344 6.17139C38.9894 6.5478 39.5653 6.95485 40.2619 7.39254C40.9584 7.83022 41.7061 8.3073 42.5048 8.82377C43.3036 9.34024 43.9258 9.80857 44.3716 10.2287C44.8174 10.6402 45.1797 11.0516 45.4583 11.463C45.9877 12.2421 46.2524 12.9993 46.2524 13.7346C46.2524 14.4699 46.1409 15.1265 45.918 15.7042C45.6951 16.2732 45.3329 16.7722 44.8314 17.2011C43.7447 18.1553 42.138 18.6323 40.0111 18.6323C38.9337 18.6323 37.7449 18.4091 36.4446 17.9627C36.1474 17.8664 35.9617 17.757 35.8874 17.6344C35.8038 17.4856 35.7295 17.2055 35.6645 16.7941C35.5995 16.3826 35.5205 16.0106 35.4276 15.678C35.3441 15.3453 35.2651 15.0477 35.1908 14.7851L34.9958 14.1023C34.94 13.9009 34.9122 13.7346 34.9122 13.6033C34.9122 13.2882 35.0376 13.1306 35.2883 13.1306C35.6227 13.1306 35.8642 13.3713 36.0128 13.8528C36.2728 14.7107 36.505 15.2665 36.7093 15.5204C37.4988 16.5008 38.4136 17.1398 39.4538 17.4375C39.7603 17.525 40.169 17.5688 40.6798 17.5688C41.1999 17.5688 41.7061 17.4987 42.1983 17.3587C42.6999 17.2099 43.1132 17.0129 43.4382 16.7678C44.0512 16.2951 44.3577 15.7217 44.3577 15.0477C44.3577 14.3649 44.1255 13.7521 43.6611 13.2094C43.206 12.6579 42.6534 12.1808 42.0033 11.7782C41.3624 11.3667 40.8795 11.0647 40.5544 10.8721C40.2386 10.6796 39.9414 10.4957 39.6628 10.3207C37.313 8.84128 35.9245 7.37065 35.4973 5.90878C35.3859 5.52361 35.3301 5.08155 35.3301 4.58258C35.3301 4.08362 35.4602 3.57153 35.7202 3.0463C35.9803 2.52108 36.3518 2.06151 36.8347 1.66759C37.9028 0.809721 39.282 0.380788 40.9724 0.380788C41.7432 0.380788 42.3609 0.455195 42.8252 0.604008C43.4754 0.805344 43.898 0.906012 44.093 0.906012Z" fill="white"/>
<path d="M49.1501 18.501C48.6393 18.501 48.3839 18.3391 48.3839 18.0152C48.3839 17.7613 48.5511 17.6344 48.8854 17.6344L49.5681 17.7001C50.0882 17.7001 50.4411 17.49 50.6268 17.0698C50.8312 16.5883 50.9333 15.6254 50.9333 14.1811V4.87146C50.9333 3.43584 50.859 2.53421 50.7104 2.16655C50.5711 1.79014 50.4132 1.55379 50.2368 1.4575C50.0603 1.36121 49.8374 1.31306 49.5681 1.31306L48.8854 1.36558C48.5511 1.36558 48.3839 1.23865 48.3839 0.984796C48.3839 0.660908 48.63 0.498963 49.1222 0.498963C49.6238 0.498963 50.0324 0.512094 50.3482 0.538355C50.6733 0.555863 50.9983 0.577747 51.3234 0.604008C52.1872 0.674038 52.8652 0.709053 53.3574 0.709053C53.8589 0.709053 54.3883 0.7003 54.9456 0.682792C55.5028 0.656531 56.1251 0.63027 56.8124 0.604008C58.6235 0.533978 59.8773 0.498963 60.5739 0.498963C61.2798 0.498963 61.6698 0.538355 61.7441 0.617139C61.8277 0.695923 61.8695 0.805344 61.8695 0.945404C61.8695 1.07671 61.8649 1.20364 61.8556 1.32619C61.8556 1.44874 61.8509 1.58443 61.8417 1.73324C61.8324 1.93458 61.8045 2.23658 61.7581 2.63925C61.7116 3.03317 61.6559 3.30016 61.5909 3.44022C61.5259 3.57153 61.433 3.63718 61.3123 3.63718C61.1915 3.63718 61.1079 3.61092 61.0615 3.5584C61.0151 3.49712 60.95 3.36581 60.8665 3.16448C60.7921 2.95439 60.6528 2.75743 60.4485 2.5736C60.2535 2.38102 59.9423 2.22345 59.5151 2.1009C58.6792 1.86455 57.1328 1.74637 54.8759 1.74637H53.636C53.4131 1.74637 53.2692 1.77701 53.2042 1.83829C53.1484 1.89956 53.1206 2.03962 53.1206 2.25847V7.78645C54.2258 7.90901 55.1406 7.97028 55.8651 7.97028C56.5988 7.97028 57.1189 7.96591 57.4254 7.95715C57.7412 7.9484 58.0012 7.92214 58.2055 7.87837C58.5678 7.81709 58.8278 7.6639 58.9857 7.4188C59.3015 6.95485 59.5569 6.72288 59.7519 6.72288C60.0027 6.72288 60.1281 6.84543 60.1281 7.09053L59.6405 8.95508L59.6962 9.95301C59.6962 10.5833 59.5383 10.8984 59.2225 10.8984C58.9532 10.8984 58.8185 10.7321 58.8185 10.3994C58.8185 10.0581 58.7953 9.80419 58.7489 9.63787C58.7117 9.47155 58.5956 9.34024 58.4006 9.24395C58.1034 9.10389 57.3789 9.03386 56.2273 9.03386C55.0756 9.03386 54.04 9.08201 53.1206 9.1783V12.2903C53.1206 14.2248 53.167 15.8224 53.2599 17.0829C54.0122 17.2405 54.8295 17.3193 55.7118 17.3193C56.5941 17.3193 57.3464 17.2974 57.9687 17.2536C58.6003 17.2099 59.1436 17.1223 59.5987 16.991C60.4996 16.7372 61.1637 16.2513 61.5909 15.5335C61.7766 15.2184 61.9624 15.0608 62.1481 15.0608C62.3339 15.0608 62.4268 15.1877 62.4268 15.4416C62.4268 15.5466 62.3943 15.6823 62.3293 15.8487C62.255 16.0763 62.1481 16.4176 62.0088 16.8728C61.8695 17.3193 61.7627 17.6432 61.6884 17.8445C61.6141 18.0458 61.5305 18.199 61.4376 18.3041C61.2983 18.4792 61.0243 18.5667 60.6157 18.5667C60.207 18.5667 59.8123 18.5623 59.4315 18.5536C59.0507 18.5536 58.6514 18.5492 58.2334 18.5404C57.7505 18.5229 57.0028 18.4879 55.9904 18.4354C53.4642 18.3216 51.9828 18.2822 51.5463 18.3172C51.1098 18.3522 50.7801 18.3785 50.5572 18.396C50.3343 18.4223 50.116 18.4441 49.9024 18.4616C49.6888 18.4879 49.438 18.501 49.1501 18.501Z" fill="white"/>
<path d="M65.4081 18.501C64.8044 18.501 64.5026 18.3391 64.5026 18.0152C64.5026 17.7613 64.6697 17.6344 65.0041 17.6344L65.6867 17.7001C66.244 17.7001 66.6201 17.4068 66.8152 16.8203C66.9731 16.3214 67.052 15.4285 67.052 14.1417V4.87146C67.052 3.58466 66.987 2.7443 66.857 2.35038C66.7269 1.94771 66.5691 1.67634 66.3833 1.53628C66.2068 1.38747 65.9746 1.31306 65.6867 1.31306L65.0041 1.36558C64.6697 1.36558 64.5026 1.23865 64.5026 0.984796C64.5026 0.660908 64.758 0.498963 65.2688 0.498963C65.7796 0.498963 66.2626 0.533978 66.7177 0.604008C67.182 0.674038 67.665 0.709053 68.1665 0.709053C68.6681 0.709053 69.1464 0.674038 69.6015 0.604008C70.0658 0.533978 70.6556 0.498963 71.3708 0.498963C72.0952 0.498963 72.8707 0.608385 73.6973 0.827229C74.5239 1.04607 75.2205 1.35683 75.787 1.7595C76.9666 2.59111 77.5563 3.69408 77.5563 5.06842C77.5563 6.59157 76.8923 7.90463 75.5641 9.0076C75.1369 9.35775 74.6632 9.65538 74.1431 9.90048L78.6708 16.0981C79.1816 16.8072 79.7435 17.2361 80.3565 17.3849C80.533 17.4287 80.7559 17.4637 81.0252 17.49C81.4989 17.5337 81.7357 17.6826 81.7357 17.9364C81.7357 18.1815 81.4803 18.3041 80.9695 18.3041H78.2947C77.6538 18.3041 77.0734 17.9102 76.5533 17.1223L73.0425 11.8307C72.7267 11.3667 72.4249 11.0385 72.137 10.8459C71.8491 10.6446 71.4033 10.5439 70.7996 10.5439C70.2052 10.5439 69.6851 10.557 69.2392 10.5833V14.1417C69.2392 15.4635 69.2996 16.317 69.4204 16.7021C69.5504 17.0786 69.7036 17.3412 69.8801 17.49C70.0658 17.63 70.3073 17.7001 70.6045 17.7001L71.2732 17.6344C71.6076 17.6344 71.7748 17.7613 71.7748 18.0152C71.7748 18.3391 71.4776 18.501 70.8832 18.501C70.5767 18.501 70.2516 18.4748 69.908 18.4223C68.7934 18.2559 67.8368 18.2253 67.0381 18.3303C66.2486 18.4441 65.7053 18.501 65.4081 18.501ZM69.2392 9.42778C69.8429 9.48906 70.4234 9.5197 70.9807 9.5197H71.8584C72.7593 9.5197 73.5208 9.23082 74.1431 8.65308C74.8675 7.97904 75.2298 7.05989 75.2298 5.89565C75.2298 4.49505 74.7793 3.3877 73.8784 2.5736C73.0332 1.80327 71.9466 1.41811 70.6185 1.41811C70.1448 1.41811 69.7965 1.47938 69.5736 1.60194C69.3507 1.72449 69.2392 1.93458 69.2392 2.2322V9.42778Z" fill="white"/>
<path d="M100.223 0.498963C100.808 0.498963 101.1 0.656531 101.1 0.971666C101.1 1.27805 100.905 1.43124 100.515 1.43124C100.023 1.43124 99.6748 1.52753 99.4705 1.72011C99.099 2.05275 98.7553 2.61299 98.4395 3.40083L92.4351 18.1859C92.2029 18.7286 91.9939 19 91.8082 19C91.5667 19 91.3159 18.6892 91.0559 18.0677L84.6056 3.40083C84.2341 2.60424 83.9462 2.1009 83.7419 1.89081C83.4168 1.58443 83.0407 1.43124 82.6134 1.43124C82.1862 1.43124 81.9726 1.27367 81.9726 0.958535C81.9726 0.835983 82.0469 0.730938 82.1955 0.6434C82.3441 0.547109 82.5484 0.498963 82.8085 0.498963C83.0685 0.498963 83.2821 0.512094 83.4493 0.538355C83.6165 0.555863 83.7837 0.577747 83.9508 0.604008C84.4152 0.674038 84.861 0.709053 85.2883 0.709053C85.7155 0.709053 86.1659 0.674038 86.6396 0.604008C87.1133 0.533978 87.6148 0.498963 88.1442 0.498963C88.6736 0.498963 88.9383 0.6434 88.9383 0.932274C88.9383 1.22115 88.7386 1.36558 88.3392 1.36558C87.3083 1.36558 86.7929 1.63257 86.7929 2.16655C86.7929 2.53421 86.9786 3.13384 87.3501 3.96545L92.3933 15.3628L96.7538 4.00484C97.0232 3.29578 97.1578 2.77494 97.1578 2.44229C97.1578 1.72449 96.582 1.36558 95.4304 1.36558C95.031 1.36558 94.8313 1.22115 94.8313 0.932274C94.8313 0.6434 95.1331 0.498963 95.7368 0.498963C96.034 0.498963 96.3684 0.533978 96.7399 0.604008C97.1207 0.674038 97.5851 0.709053 98.133 0.709053L100.223 0.498963Z" fill="white"/>
<path d="M104.5 18.3041C104.026 18.3041 103.58 18.3347 103.162 18.396C102.754 18.466 102.308 18.501 101.825 18.501C101.351 18.501 101.114 18.3566 101.114 18.0677C101.114 17.7701 101.333 17.6213 101.769 17.6213C102.224 17.6213 102.549 17.5425 102.744 17.3849C103.06 17.1136 103.371 16.6715 103.678 16.0587C103.984 15.446 104.268 14.8726 104.528 14.3386C104.797 13.8047 105.103 13.1831 105.447 12.4741C105.791 11.7563 106.167 10.9597 106.576 10.0843C106.993 9.20018 107.43 8.26353 107.885 7.27436C109.074 4.6745 109.859 2.92813 110.239 2.03525C110.62 1.13361 110.829 0.634646 110.866 0.538355C110.913 0.442064 110.959 0.354527 111.006 0.275743C111.126 0.0919143 111.229 0 111.312 0C111.396 0 111.465 0.0131306 111.521 0.0393918C111.577 0.0568993 111.637 0.0962912 111.702 0.157567C111.842 0.323889 111.981 0.57337 112.12 0.906012C112.26 1.2299 112.445 1.67197 112.677 2.2322C112.919 2.79244 113.193 3.42709 113.499 4.13614C113.806 4.8452 114.131 5.60677 114.475 6.42087C114.818 7.23497 115.162 8.04907 115.506 8.86316C115.858 9.66851 116.197 10.452 116.523 11.2135C116.857 11.9751 117.154 12.6623 117.414 13.2751C118.213 15.1046 118.724 16.1988 118.947 16.5577C119.17 16.9166 119.355 17.1661 119.504 17.3062C119.736 17.5162 120.08 17.6213 120.535 17.6213C120.99 17.6213 121.217 17.7701 121.217 18.0677C121.217 18.3566 120.925 18.501 120.34 18.501C120.089 18.501 119.871 18.4879 119.685 18.4616C119.509 18.4441 119.327 18.4266 119.142 18.4091C118.603 18.3391 118.125 18.3041 117.707 18.3041L115.018 18.501C114.414 18.501 114.112 18.3391 114.112 18.0152C114.112 17.7526 114.28 17.6213 114.614 17.6213L115.45 17.7132C115.803 17.7132 116.035 17.6432 116.146 17.5031C116.258 17.3543 116.314 17.1705 116.314 16.9516C116.314 16.5402 116.128 15.9012 115.756 15.0346L114.6 12.3034H106.868C106.645 12.8286 106.436 13.3101 106.241 13.7478C106.055 14.1854 105.884 14.61 105.726 15.0214C105.475 15.6867 105.35 16.2119 105.35 16.5971C105.35 16.9735 105.419 17.2536 105.559 17.4375C105.707 17.6125 105.981 17.7001 106.38 17.7001L107.216 17.6344C107.551 17.6344 107.718 17.7613 107.718 18.0152C107.718 18.3391 107.416 18.501 106.812 18.501L104.5 18.3041ZM114.126 11.1873L110.811 3.36144C110.17 4.89334 109.023 7.50196 107.37 11.1873H114.126Z" fill="white"/>
<path d="M126.804 18.501C126.2 18.501 125.898 18.3391 125.898 18.0152C125.898 17.7613 126.066 17.6344 126.4 17.6344L127.083 17.7001C127.64 17.7001 128.011 17.4068 128.197 16.8203C128.364 16.3214 128.448 15.4285 128.448 14.1417V1.86455H128.072C126.446 1.86455 125.151 2.02211 124.185 2.33725C123.516 2.56485 123.061 2.95439 122.82 3.50587C122.643 3.90855 122.457 4.10988 122.262 4.10988C121.993 4.10988 121.858 3.96107 121.858 3.66344C121.858 3.5759 121.877 3.47524 121.914 3.36144C121.96 3.24764 122.012 3.11196 122.067 2.95439C122.216 2.53421 122.304 2.09652 122.332 1.64133C122.36 1.18613 122.411 0.884128 122.485 0.735314C122.569 0.577747 122.68 0.498963 122.82 0.498963C122.959 0.498963 123.084 0.512094 123.196 0.538355C123.307 0.555863 123.47 0.577747 123.683 0.604008C124.241 0.674038 124.942 0.709053 125.787 0.709053H134.619C135.307 0.709053 135.804 0.674038 136.11 0.604008C136.426 0.533978 136.653 0.498963 136.793 0.498963C137.099 0.498963 137.253 0.634646 137.253 0.906012C137.253 1.04607 137.225 1.21239 137.169 1.40498C137.03 1.83391 136.937 2.20594 136.89 2.52108C136.853 2.82746 136.816 3.08132 136.779 3.28265C136.742 3.47524 136.7 3.62843 136.653 3.74223C136.579 3.93481 136.468 4.0311 136.319 4.0311C136.171 4.0311 136.073 3.98295 136.027 3.88666C135.989 3.78162 135.948 3.58466 135.901 3.29578C135.855 3.00691 135.776 2.77056 135.664 2.58673C135.553 2.4029 135.404 2.25847 135.219 2.15342C134.893 1.96084 134.364 1.86455 133.63 1.86455H130.635V14.1417C130.635 15.4635 130.695 16.317 130.816 16.7021C130.946 17.0786 131.099 17.3412 131.276 17.49C131.462 17.63 131.703 17.7001 132 17.7001L132.669 17.6344C133.003 17.6344 133.171 17.7613 133.171 18.0152C133.171 18.3391 132.873 18.501 132.279 18.501C131.973 18.501 131.647 18.4748 131.304 18.4223C130.189 18.2559 129.233 18.2253 128.434 18.3303C127.644 18.4441 127.101 18.501 126.804 18.501Z" fill="white"/>
<path d="M140.067 18.501C139.463 18.501 139.161 18.3391 139.161 18.0152C139.161 17.7613 139.328 17.6344 139.663 17.6344L140.345 17.7001C140.847 17.7001 141.195 17.4725 141.39 17.0173C141.604 16.5096 141.711 15.551 141.711 14.1417L141.641 4.87146C141.641 3.42709 141.557 2.52108 141.39 2.15342C141.232 1.77701 141.065 1.54504 140.889 1.4575C140.721 1.36121 140.517 1.31306 140.276 1.31306L139.593 1.36558C139.259 1.36558 139.091 1.23865 139.091 0.984796C139.091 0.660908 139.347 0.498963 139.858 0.498963C140.369 0.498963 140.851 0.533978 141.307 0.604008C141.771 0.674038 142.254 0.709053 142.755 0.709053C143.257 0.709053 143.735 0.674038 144.19 0.604008C144.645 0.533978 145.124 0.498963 145.625 0.498963C146.136 0.498963 146.392 0.660908 146.392 0.984796C146.392 1.23865 146.224 1.36558 145.89 1.36558L145.221 1.31306C144.72 1.31306 144.371 1.54066 144.176 1.99585C143.963 2.50357 143.856 3.46211 143.856 4.87146L143.926 14.1417C143.926 15.551 144.014 16.4483 144.19 16.8334C144.376 17.2186 144.562 17.4593 144.748 17.5556C144.933 17.6519 145.147 17.7001 145.388 17.7001L146.057 17.6344C146.392 17.6344 146.559 17.7613 146.559 18.0152C146.559 18.3391 146.262 18.501 145.667 18.501C145.361 18.501 145.036 18.4748 144.692 18.4223C143.531 18.2472 142.542 18.2165 141.725 18.3303C140.916 18.4441 140.364 18.501 140.067 18.501Z" fill="white"/>
<path d="M148.871 9.41465C148.871 8.09284 149.131 6.88044 149.652 5.77747C150.181 4.66575 150.891 3.71159 151.783 2.915C152.684 2.10965 153.724 1.48814 154.904 1.05045C156.083 0.604008 157.356 0.380788 158.721 0.380788C160.086 0.380788 161.354 0.617139 162.524 1.08984C163.694 1.55379 164.697 2.19719 165.533 3.02004C167.289 4.76204 168.166 6.97236 168.166 9.651C168.166 12.1896 167.261 14.3124 165.45 16.0194C163.602 17.7613 161.252 18.6323 158.4 18.6323C155.614 18.6323 153.32 17.7526 151.518 15.9931C149.754 14.2598 148.871 12.067 148.871 9.41465ZM151.254 8.66621C151.254 9.80419 151.449 10.9247 151.839 12.0276C152.238 13.1219 152.8 14.076 153.524 14.8901C155.075 16.6584 157.035 17.5425 159.404 17.5425C161.233 17.5425 162.733 16.8947 163.903 15.5992C165.111 14.2686 165.714 12.5179 165.714 10.3469C165.714 7.78208 164.985 5.65492 163.527 3.96545C162.078 2.30223 160.244 1.47063 158.024 1.47063C156.195 1.47063 154.62 2.12716 153.302 3.44022C151.936 4.80581 151.254 6.5478 151.254 8.66621Z" fill="white"/>
<path d="M171.468 18.501C170.864 18.501 170.563 18.3391 170.563 18.0152C170.563 17.7613 170.73 17.6344 171.064 17.6344L171.747 17.7001C172.304 17.7001 172.676 17.4068 172.861 16.8203C173.028 16.3214 173.112 15.4285 173.112 14.1417V4.89772C173.112 3.60217 173.047 2.76181 172.917 2.37664C172.787 1.98272 172.629 1.71573 172.443 1.57567C172.267 1.42686 172.035 1.35245 171.747 1.35245L171.064 1.41811C170.73 1.41811 170.563 1.2868 170.563 1.02419C170.563 0.682792 170.864 0.512094 171.468 0.512094L173.293 0.709053C173.683 0.709053 174.032 0.682792 174.338 0.63027L187.169 14.6932V4.87146C187.169 3.59341 187.095 2.75305 186.946 2.35038C186.807 1.94771 186.644 1.67634 186.458 1.53628C186.273 1.38747 186.031 1.31306 185.734 1.31306L185.051 1.36558C184.717 1.36558 184.55 1.23865 184.55 0.984796C184.55 0.660908 184.852 0.498963 185.455 0.498963C185.687 0.498963 185.999 0.529601 186.389 0.590878C186.881 0.669661 187.327 0.709053 187.726 0.709053C188.125 0.709053 188.516 0.674038 188.896 0.604008C189.277 0.533978 189.723 0.498963 190.234 0.498963C190.745 0.498963 191 0.660908 191 0.984796C191 1.23865 190.833 1.36558 190.498 1.36558L189.816 1.31306C189.249 1.31306 188.873 1.60631 188.687 2.19281C188.529 2.65676 188.451 3.54964 188.451 4.87146V18.1334C188.451 18.431 188.423 18.628 188.367 18.7243C188.311 18.8205 188.223 18.8687 188.102 18.8687C187.935 18.8687 187.67 18.6849 187.308 18.3172L174.463 4.29371V14.1417C174.463 15.4635 174.524 16.317 174.645 16.7021C174.775 17.0786 174.928 17.3412 175.104 17.49C175.29 17.63 175.531 17.7001 175.829 17.7001L176.497 17.6344C176.832 17.6344 176.999 17.7613 176.999 18.0152C176.999 18.3391 176.73 18.501 176.191 18.501C175.661 18.501 175.188 18.466 174.77 18.396C174.361 18.3347 173.962 18.3041 173.572 18.3041C173.182 18.3041 172.796 18.3347 172.415 18.396C172.044 18.466 171.728 18.501 171.468 18.501Z" fill="white"/>
</svg>
