<svg width="189" height="21" viewBox="0 0 189 21" fill="none" xmlns="http://www.w3.org/2000/svg">
<path d="M0.896061 20.4485C0.298687 20.4485 0 20.2695 0 19.9115C0 19.631 0.165427 19.4907 0.49628 19.4907L1.17177 19.5632C1.72319 19.5632 2.0954 19.2391 2.2884 18.5909C2.44464 18.0394 2.52276 17.0525 2.52276 15.6303V5.38424C2.52276 3.96199 2.45842 3.03317 2.32976 2.59779C2.20109 2.15273 2.04486 1.8528 1.86105 1.698C1.68643 1.53352 1.45667 1.45128 1.17177 1.45128L0.49628 1.50933C0.165427 1.50933 0 1.36904 0 1.08846C0 0.730477 0.252735 0.551486 0.758206 0.551486C1.26368 0.551486 1.74158 0.590187 2.1919 0.667588C2.65142 0.74499 3.12932 0.78369 3.6256 0.78369C4.12188 0.78369 4.59519 0.74499 5.04551 0.667588C5.50503 0.590187 6.08862 0.551486 6.79628 0.551486C7.51313 0.551486 8.28053 0.672426 9.09847 0.914305C9.91641 1.15619 10.6057 1.49965 11.1663 1.94471C12.3335 2.86386 12.9171 4.08293 12.9171 5.60193C12.9171 7.28542 12.26 8.7367 10.9457 9.95577C10.523 10.3428 10.0543 10.6717 9.53961 10.9426L14.0199 17.7927C14.5254 18.5764 15.0814 19.0504 15.688 19.2149C15.8626 19.2633 16.0832 19.302 16.3497 19.331C16.8184 19.3794 17.0527 19.5439 17.0527 19.8245C17.0527 20.0954 16.8 20.2308 16.2945 20.2308H13.6477C13.0136 20.2308 12.4392 19.7954 11.9245 18.9247L8.45055 13.076C8.13807 12.5632 7.83939 12.2004 7.55449 11.9876C7.26958 11.765 6.82845 11.6538 6.23107 11.6538C5.64289 11.6538 5.12823 11.6683 4.68709 11.6973V15.6303C4.68709 17.0912 4.74683 18.0346 4.8663 18.4603C4.99497 18.8763 5.14661 19.1665 5.32123 19.331C5.50503 19.4858 5.74398 19.5632 6.03807 19.5632L6.69978 19.4907C7.03063 19.4907 7.19606 19.631 7.19606 19.9115C7.19606 20.2695 6.90197 20.4485 6.31379 20.4485C6.0105 20.4485 5.68884 20.4195 5.3488 20.3614C4.24595 20.1776 3.29934 20.1437 2.50897 20.2598C1.72779 20.3856 1.19015 20.4485 0.896061 20.4485ZM4.68709 10.4202C5.28446 10.4879 5.85886 10.5218 6.41028 10.5218H7.27877C8.17024 10.5218 8.92385 10.2025 9.53961 9.56392C10.2565 8.81894 10.6149 7.80304 10.6149 6.51624C10.6149 4.96821 10.1691 3.7443 9.27768 2.84451C8.44136 1.99309 7.36608 1.56738 6.05186 1.56738C5.58315 1.56738 5.23851 1.63511 5.01794 1.77056C4.79737 1.90601 4.68709 2.13822 4.68709 2.46717V10.4202Z" fill="#505050"/>
<path d="M18.6656 20.4485C18.1602 20.4485 17.9074 20.2695 17.9074 19.9115C17.9074 19.631 18.0729 19.4907 18.4037 19.4907L19.0792 19.5632C19.5939 19.5632 19.9431 19.331 20.1269 18.8666C20.3291 18.3345 20.4302 17.2702 20.4302 15.6738V5.38424C20.4302 3.79751 20.3567 2.80097 20.2096 2.39461C20.0718 1.97858 19.9155 1.71735 19.7409 1.61092C19.5663 1.50449 19.3457 1.45128 19.0792 1.45128L18.4037 1.50933C18.0729 1.50933 17.9074 1.36904 17.9074 1.08846C17.9074 0.730477 18.151 0.551486 18.6381 0.551486C19.1344 0.551486 19.5387 0.565999 19.8512 0.595024C20.1729 0.614375 20.4945 0.638563 20.8162 0.667588C21.6709 0.74499 22.3418 0.78369 22.8289 0.78369C23.3252 0.78369 23.849 0.774015 24.4004 0.754665C24.9519 0.725639 25.5676 0.696614 26.2477 0.667588C28.0398 0.590187 29.2805 0.551486 29.9698 0.551486C30.6683 0.551486 31.0543 0.595024 31.1278 0.682101C31.2105 0.769178 31.2519 0.890117 31.2519 1.04492C31.2519 1.19005 31.2473 1.33034 31.2381 1.46579C31.2381 1.60124 31.2335 1.75121 31.2243 1.91569C31.2151 2.13822 31.1875 2.47201 31.1416 2.91707C31.0956 3.35245 31.0405 3.64755 30.9761 3.80235C30.9118 3.94748 30.8199 4.02004 30.7004 4.02004C30.581 4.02004 30.4982 3.99102 30.4523 3.93296C30.4063 3.86524 30.342 3.72011 30.2593 3.49758C30.1858 3.26538 30.0479 3.04768 29.8457 2.84451C29.6527 2.63165 29.3449 2.4575 28.9221 2.32205C28.095 2.06082 26.5648 1.9302 24.3315 1.9302H23.1046C22.884 1.9302 22.7416 1.96406 22.6772 2.03179C22.6221 2.09952 22.5945 2.25432 22.5945 2.4962V8.60608C23.6882 8.74153 24.5934 8.80926 25.3103 8.80926C26.0363 8.80926 26.551 8.80442 26.8543 8.79475C27.1667 8.78507 27.4241 8.75605 27.6263 8.70767C27.9847 8.63994 28.242 8.47063 28.3982 8.19972C28.7107 7.68694 28.9635 7.43055 29.1565 7.43055C29.4046 7.43055 29.5287 7.566 29.5287 7.8369L29.0462 9.89772L29.1013 11.0007C29.1013 11.6973 28.9451 12.0456 28.6326 12.0456C28.3661 12.0456 28.2328 11.8618 28.2328 11.4941C28.2328 11.1168 28.2098 10.8362 28.1639 10.6524C28.1271 10.4686 28.0123 10.3234 27.8193 10.217C27.5252 10.0622 26.8083 9.9848 25.6687 9.9848C24.5291 9.9848 23.5044 10.038 22.5945 10.1444V13.584C22.5945 15.7222 22.6405 17.4879 22.7324 18.8811C23.4768 19.0553 24.2856 19.1424 25.1586 19.1424C26.0317 19.1424 26.7761 19.1182 27.3919 19.0698C28.0168 19.0214 28.5545 18.9247 29.0048 18.7795C29.8963 18.499 30.5534 17.962 30.9761 17.1686C31.16 16.8203 31.3438 16.6462 31.5276 16.6462C31.7114 16.6462 31.8033 16.7865 31.8033 17.067C31.8033 17.1831 31.7711 17.3331 31.7068 17.5169C31.6333 17.7685 31.5276 18.1458 31.3897 18.6489C31.2519 19.1424 31.1462 19.5003 31.0726 19.7229C30.9991 19.9454 30.9164 20.1147 30.8245 20.2308C30.6867 20.4243 30.4155 20.5211 30.0112 20.5211C29.6068 20.5211 29.2162 20.5162 28.8394 20.5066C28.4626 20.5066 28.0674 20.5017 27.6538 20.4921C27.1759 20.4727 26.4361 20.434 25.4344 20.3759C22.9346 20.2502 21.4687 20.2066 21.0368 20.2453C20.6048 20.284 20.2786 20.3131 20.058 20.3324C19.8374 20.3614 19.6214 20.3856 19.4101 20.405C19.1987 20.434 18.9505 20.4485 18.6656 20.4485Z" fill="#505050"/>
<path d="M43.6313 1.00138L44.2103 0.914305C44.4676 0.914305 44.6101 1.13683 44.6376 1.58189C44.6652 2.01728 44.702 2.37526 44.7479 2.65584C44.7939 2.93642 44.8398 3.18797 44.8858 3.4105C44.9317 3.63303 44.9685 3.8217 44.9961 3.9765C45.0328 4.13131 45.0512 4.26192 45.0512 4.36835C45.0512 4.4651 44.9961 4.56185 44.8858 4.6586C44.7847 4.74568 44.6744 4.78922 44.5549 4.78922C44.3435 4.78922 44.1368 4.55218 43.9346 4.07809C43.5486 3.1783 43.2269 2.59779 42.9696 2.33656C42.3722 1.7754 41.4945 1.49482 40.3365 1.49482C38.719 1.49482 37.6346 2.00276 37.0831 3.01866C36.9085 3.34762 36.8212 3.74914 36.8212 4.22322C36.8212 4.6973 36.9269 5.14236 37.1383 5.5584C37.3589 5.97443 37.6897 6.3953 38.1309 6.82101C38.5812 7.23704 39.151 7.68694 39.8403 8.1707C40.5295 8.65446 41.2694 9.18176 42.0597 9.75259C42.8501 10.3234 43.4659 10.8411 43.907 11.3055C44.3481 11.7602 44.7066 12.2149 44.9823 12.6697C45.5061 13.5308 45.7681 14.3677 45.7681 15.1804C45.7681 15.9931 45.6578 16.7187 45.4372 17.3573C45.2166 17.9862 44.8582 18.5377 44.3619 19.0117C43.2867 20.0663 41.6967 20.5936 39.5921 20.5936C38.526 20.5936 37.3497 20.3469 36.063 19.8535C35.7689 19.7471 35.5851 19.6261 35.5116 19.4907C35.4289 19.3262 35.3554 19.0166 35.291 18.5619C35.2267 18.1071 35.1486 17.6959 35.0567 17.3283C34.974 16.9606 34.8958 16.6317 34.8223 16.3414L34.6293 15.5867C34.5742 15.3642 34.5466 15.1804 34.5466 15.0352C34.5466 14.6869 34.6707 14.5128 34.9188 14.5128C35.2497 14.5128 35.4886 14.7789 35.6357 15.311C35.893 16.2592 36.1228 16.8735 36.3249 17.1541C37.1061 18.2377 38.0114 18.944 39.0407 19.273C39.344 19.3697 39.7484 19.4181 40.2538 19.4181C40.7685 19.4181 41.2694 19.3407 41.7565 19.1859C42.2527 19.0214 42.6617 18.8037 42.9834 18.5328C43.5899 18.0104 43.8932 17.3766 43.8932 16.6317C43.8932 15.877 43.6635 15.1997 43.2039 14.5999C42.7536 13.9903 42.2068 13.463 41.5635 13.018C40.9293 12.5632 40.4514 12.2294 40.1298 12.0166C39.8173 11.8037 39.5232 11.6006 39.2475 11.407C36.9223 9.77194 35.5484 8.14651 35.1256 6.53075C35.0153 6.10504 34.9602 5.61645 34.9602 5.06496C34.9602 4.51348 35.0888 3.94748 35.3462 3.36697C35.6035 2.78645 35.9711 2.27851 36.449 1.84312C37.5059 0.894955 38.8707 0.420871 40.5433 0.420871C41.3061 0.420871 41.9173 0.50311 42.3768 0.667588C43.0201 0.890117 43.4383 1.00138 43.6313 1.00138Z" fill="#505050"/>
<path d="M48.6354 20.4485C48.13 20.4485 47.8772 20.2695 47.8772 19.9115C47.8772 19.631 48.0427 19.4907 48.3735 19.4907L49.049 19.5632C49.5637 19.5632 49.9129 19.331 50.0967 18.8666C50.2989 18.3345 50.4 17.2702 50.4 15.6738V5.38424C50.4 3.79751 50.3265 2.80097 50.1794 2.39461C50.0416 1.97858 49.8853 1.71735 49.7107 1.61092C49.5361 1.50449 49.3155 1.45128 49.049 1.45128L48.3735 1.50933C48.0427 1.50933 47.8772 1.36904 47.8772 1.08846C47.8772 0.730477 48.1208 0.551486 48.6079 0.551486C49.1042 0.551486 49.5085 0.565999 49.821 0.595024C50.1427 0.614375 50.4643 0.638563 50.786 0.667588C51.6407 0.74499 52.3116 0.78369 52.7987 0.78369C53.295 0.78369 53.8188 0.774015 54.3702 0.754665C54.9217 0.725639 55.5374 0.696614 56.2175 0.667588C58.0096 0.590187 59.2503 0.551486 59.9396 0.551486C60.6381 0.551486 61.0241 0.595024 61.0976 0.682101C61.1803 0.769178 61.2217 0.890117 61.2217 1.04492C61.2217 1.19005 61.2171 1.33034 61.2079 1.46579C61.2079 1.60124 61.2033 1.75121 61.1941 1.91569C61.1849 2.13822 61.1573 2.47201 61.1114 2.91707C61.0654 3.35245 61.0103 3.64755 60.9459 3.80235C60.8816 3.94748 60.7897 4.02004 60.6702 4.02004C60.5508 4.02004 60.4681 3.99102 60.4221 3.93296C60.3761 3.86524 60.3118 3.72011 60.2291 3.49758C60.1556 3.26538 60.0177 3.04768 59.8155 2.84451C59.6225 2.63165 59.3147 2.4575 58.8919 2.32205C58.0648 2.06082 56.5346 1.9302 54.3013 1.9302H53.0744C52.8538 1.9302 52.7114 1.96406 52.647 2.03179C52.5919 2.09952 52.5643 2.25432 52.5643 2.4962V8.60608C53.658 8.74153 54.5632 8.80926 55.2801 8.80926C56.0061 8.80926 56.5208 8.80442 56.8241 8.79475C57.1365 8.78507 57.3939 8.75605 57.5961 8.70767C57.9545 8.63994 58.2118 8.47063 58.3681 8.19972C58.6805 7.68694 58.9333 7.43055 59.1263 7.43055C59.3744 7.43055 59.4985 7.566 59.4985 7.8369L59.016 9.89772L59.0711 11.0007C59.0711 11.6973 58.9149 12.0456 58.6024 12.0456C58.3359 12.0456 58.2026 11.8618 58.2026 11.4941C58.2026 11.1168 58.1796 10.8362 58.1337 10.6524C58.0969 10.4686 57.9821 10.3234 57.7891 10.217C57.495 10.0622 56.7781 9.9848 55.6385 9.9848C54.4989 9.9848 53.4742 10.038 52.5643 10.1444V13.584C52.5643 15.7222 52.6103 17.4879 52.7022 18.8811C53.4466 19.0553 54.2554 19.1424 55.1284 19.1424C56.0015 19.1424 56.746 19.1182 57.3617 19.0698C57.9867 19.0214 58.5243 18.9247 58.9746 18.7795C59.8661 18.499 60.5232 17.962 60.9459 17.1686C61.1298 16.8203 61.3136 16.6462 61.4974 16.6462C61.6812 16.6462 61.7731 16.7865 61.7731 17.067C61.7731 17.1831 61.7409 17.3331 61.6766 17.5169C61.6031 17.7685 61.4974 18.1458 61.3595 18.6489C61.2217 19.1424 61.116 19.5003 61.0424 19.7229C60.9689 19.9454 60.8862 20.1147 60.7943 20.2308C60.6565 20.4243 60.3853 20.5211 59.981 20.5211C59.5766 20.5211 59.186 20.5162 58.8092 20.5066C58.4324 20.5066 58.0372 20.5017 57.6236 20.4921C57.1457 20.4727 56.4059 20.434 55.4042 20.3759C52.9044 20.2502 51.4385 20.2066 51.0066 20.2453C50.5746 20.284 50.2484 20.3131 50.0278 20.3324C49.8072 20.3614 49.5912 20.3856 49.3799 20.405C49.1685 20.434 48.9203 20.4485 48.6354 20.4485Z" fill="#505050"/>
<path d="M64.7232 20.4485C64.1258 20.4485 63.8271 20.2695 63.8271 19.9115C63.8271 19.631 63.9926 19.4907 64.3234 19.4907L64.9989 19.5632C65.5503 19.5632 65.9225 19.2391 66.1155 18.5909C66.2718 18.0394 66.3499 17.0525 66.3499 15.6303V5.38424C66.3499 3.96199 66.2856 3.03317 66.1569 2.59779C66.0282 2.15273 65.872 1.8528 65.6882 1.698C65.5136 1.53352 65.2838 1.45128 64.9989 1.45128L64.3234 1.50933C63.9926 1.50933 63.8271 1.36904 63.8271 1.08846C63.8271 0.730477 64.0799 0.551486 64.5853 0.551486C65.0908 0.551486 65.5687 0.590187 66.019 0.667588C66.4786 0.74499 66.9565 0.78369 67.4527 0.78369C67.949 0.78369 68.4223 0.74499 68.8727 0.667588C69.3322 0.590187 69.9158 0.551486 70.6234 0.551486C71.3403 0.551486 72.1077 0.672426 72.9256 0.914305C73.7435 1.15619 74.4328 1.49965 74.9934 1.94471C76.1606 2.86386 76.7442 4.08293 76.7442 5.60193C76.7442 7.28542 76.0871 8.7367 74.7729 9.95577C74.3501 10.3428 73.8814 10.6717 73.3667 10.9426L77.847 17.7927C78.3525 18.5764 78.9085 19.0504 79.5151 19.2149C79.6897 19.2633 79.9103 19.302 80.1768 19.331C80.6455 19.3794 80.8799 19.5439 80.8799 19.8245C80.8799 20.0954 80.6271 20.2308 80.1217 20.2308H77.4748C76.8407 20.2308 76.2663 19.7954 75.7516 18.9247L72.2777 13.076C71.9652 12.5632 71.6665 12.2004 71.3816 11.9876C71.0967 11.765 70.6556 11.6538 70.0582 11.6538C69.47 11.6538 68.9554 11.6683 68.5142 11.6973V15.6303C68.5142 17.0912 68.574 18.0346 68.6934 18.4603C68.8221 18.8763 68.9737 19.1665 69.1484 19.331C69.3322 19.4858 69.5711 19.5632 69.8652 19.5632L70.5269 19.4907C70.8578 19.4907 71.0232 19.631 71.0232 19.9115C71.0232 20.2695 70.7291 20.4485 70.1409 20.4485C69.8376 20.4485 69.516 20.4195 69.1759 20.3614C68.0731 20.1776 67.1265 20.1437 66.3361 20.2598C65.5549 20.3856 65.0173 20.4485 64.7232 20.4485ZM68.5142 10.4202C69.1116 10.4879 69.686 10.5218 70.2374 10.5218H71.1059C71.9974 10.5218 72.751 10.2025 73.3667 9.56392C74.0836 8.81894 74.442 7.80304 74.442 6.51624C74.442 4.96821 73.9963 3.7443 73.1048 2.84451C72.2685 1.99309 71.1932 1.56738 69.879 1.56738C69.4103 1.56738 69.0656 1.63511 68.8451 1.77056C68.6245 1.90601 68.5142 2.13822 68.5142 2.46717V10.4202Z" fill="#505050"/>
<path d="M99.1733 0.551486C99.7523 0.551486 100.042 0.725639 100.042 1.07395C100.042 1.41258 99.8488 1.58189 99.4628 1.58189C98.9757 1.58189 98.6311 1.68832 98.4289 1.90117C98.0613 2.26883 97.7212 2.88804 97.4088 3.75881L91.4672 20.1002C91.2374 20.7001 91.0306 21 90.8468 21C90.6079 21 90.3597 20.6565 90.1024 19.9696L83.7197 3.75881C83.3521 2.87837 83.0672 2.32205 82.865 2.08984C82.5433 1.75121 82.1711 1.58189 81.7484 1.58189C81.3256 1.58189 81.1142 1.40774 81.1142 1.05943C81.1142 0.923981 81.1877 0.807878 81.3348 0.711126C81.4818 0.604699 81.684 0.551486 81.9414 0.551486C82.1987 0.551486 82.4101 0.565999 82.5755 0.595024C82.7409 0.614375 82.9063 0.638563 83.0718 0.667588C83.5313 0.74499 83.9724 0.78369 84.3952 0.78369C84.8179 0.78369 85.2637 0.74499 85.7324 0.667588C86.2011 0.590187 86.6974 0.551486 87.2212 0.551486C87.7451 0.551486 88.007 0.711126 88.007 1.03041C88.007 1.34969 87.8094 1.50933 87.4142 1.50933C86.3941 1.50933 85.884 1.80442 85.884 2.39461C85.884 2.80097 86.0678 3.46372 86.4354 4.38286L91.4258 16.98L95.7407 4.4264C96.0072 3.64271 96.1405 3.06703 96.1405 2.69938C96.1405 1.90601 95.5707 1.50933 94.4311 1.50933C94.0359 1.50933 93.8383 1.34969 93.8383 1.03041C93.8383 0.711126 94.137 0.551486 94.7344 0.551486C95.0284 0.551486 95.3593 0.590187 95.7269 0.667588C96.1037 0.74499 96.5632 0.78369 97.1055 0.78369L99.1733 0.551486Z" fill="#505050"/>
<path d="M103.405 20.2308C102.937 20.2308 102.496 20.2647 102.082 20.3324C101.678 20.4098 101.237 20.4485 100.759 20.4485C100.29 20.4485 100.056 20.2889 100.056 19.9696C100.056 19.6406 100.272 19.4762 100.703 19.4762C101.154 19.4762 101.475 19.3891 101.668 19.2149C101.981 18.915 102.289 18.4264 102.592 17.7491C102.895 17.0719 103.176 16.4381 103.433 15.848C103.7 15.2578 104.003 14.5708 104.343 13.7871C104.683 12.9938 105.055 12.1133 105.46 11.1458C105.873 10.1686 106.305 9.13338 106.755 8.04008C107.932 5.16655 108.708 3.23635 109.085 2.24948C109.462 1.25294 109.669 0.701451 109.705 0.595024C109.751 0.488597 109.797 0.391845 109.843 0.304768C109.963 0.101589 110.064 0 110.147 0C110.229 0 110.298 0.0145128 110.353 0.0435384C110.409 0.0628887 110.468 0.106427 110.533 0.174153C110.67 0.357982 110.808 0.633725 110.946 1.00138C111.084 1.35936 111.268 1.84796 111.498 2.46717C111.737 3.08639 112.008 3.78784 112.311 4.57153C112.614 5.35522 112.936 6.19696 113.276 7.09675C113.616 7.99654 113.956 8.89634 114.296 9.79613C114.645 10.6862 114.981 11.5522 115.302 12.3939C115.633 13.2357 115.927 13.9952 116.185 14.6724C116.975 16.6945 117.481 17.9039 117.701 18.3006C117.922 18.6973 118.105 18.973 118.253 19.1278C118.482 19.3601 118.822 19.4762 119.273 19.4762C119.723 19.4762 119.948 19.6406 119.948 19.9696C119.948 20.2889 119.659 20.4485 119.08 20.4485C118.832 20.4485 118.616 20.434 118.432 20.405C118.257 20.3856 118.078 20.3663 117.894 20.3469C117.361 20.2695 116.888 20.2308 116.474 20.2308L113.814 20.4485C113.216 20.4485 112.918 20.2695 112.918 19.9115C112.918 19.6213 113.083 19.4762 113.414 19.4762L114.241 19.5777C114.59 19.5777 114.82 19.5003 114.93 19.3455C115.04 19.1811 115.096 18.9779 115.096 18.736C115.096 18.2813 114.912 17.575 114.544 16.6171L113.4 13.5985H105.749C105.528 14.179 105.322 14.7111 105.129 15.1949C104.945 15.6786 104.775 16.1479 104.619 16.6026C104.37 17.3379 104.246 17.9185 104.246 18.3442C104.246 18.7602 104.315 19.0698 104.453 19.273C104.6 19.4665 104.871 19.5632 105.267 19.5632L106.094 19.4907C106.425 19.4907 106.59 19.631 106.59 19.9115C106.59 20.2695 106.291 20.4485 105.694 20.4485L103.405 20.2308ZM112.931 12.3649L109.65 3.71527C109.016 5.40843 107.881 8.29164 106.245 12.3649H112.931Z" fill="#505050"/>
<path d="M125.476 20.4485C124.879 20.4485 124.58 20.2695 124.58 19.9115C124.58 19.631 124.746 19.4907 125.076 19.4907L125.752 19.5632C126.303 19.5632 126.671 19.2391 126.855 18.5909C127.02 18.0394 127.103 17.0525 127.103 15.6303V2.06082H126.731C125.122 2.06082 123.84 2.23497 122.884 2.58328C122.223 2.83483 121.772 3.26538 121.533 3.87491C121.359 4.31997 121.175 4.5425 120.982 4.5425C120.716 4.5425 120.582 4.37802 120.582 4.04907C120.582 3.95231 120.601 3.84105 120.637 3.71527C120.683 3.5895 120.734 3.43953 120.789 3.26538C120.936 2.80097 121.023 2.31721 121.051 1.8141C121.079 1.31099 121.129 0.977194 121.203 0.812716C121.285 0.638563 121.396 0.551486 121.533 0.551486C121.671 0.551486 121.795 0.565999 121.906 0.595024C122.016 0.614375 122.177 0.638563 122.388 0.667588C122.94 0.74499 123.633 0.78369 124.47 0.78369H133.21C133.89 0.78369 134.382 0.74499 134.685 0.667588C134.997 0.590187 135.223 0.551486 135.36 0.551486C135.664 0.551486 135.815 0.701451 135.815 1.00138C135.815 1.15619 135.788 1.34001 135.733 1.55287C135.595 2.02695 135.503 2.43815 135.457 2.78645C135.42 3.12509 135.383 3.40567 135.347 3.6282C135.31 3.84105 135.268 4.01037 135.223 4.13614C135.149 4.349 135.039 4.45542 134.892 4.45542C134.745 4.45542 134.648 4.40221 134.602 4.29578C134.565 4.17968 134.524 3.96199 134.478 3.64271C134.432 3.32343 134.354 3.0622 134.244 2.85902C134.133 2.65584 133.986 2.4962 133.803 2.3801C133.481 2.16724 132.957 2.06082 132.231 2.06082H129.267V15.6303C129.267 17.0912 129.327 18.0346 129.446 18.4603C129.575 18.8763 129.727 19.1665 129.901 19.331C130.085 19.4858 130.324 19.5632 130.618 19.5632L131.28 19.4907C131.611 19.4907 131.776 19.631 131.776 19.9115C131.776 20.2695 131.482 20.4485 130.894 20.4485C130.591 20.4485 130.269 20.4195 129.929 20.3614C128.826 20.1776 127.879 20.1437 127.089 20.2598C126.308 20.3856 125.77 20.4485 125.476 20.4485Z" fill="#505050"/>
<path d="M138.6 20.4485C138.003 20.4485 137.704 20.2695 137.704 19.9115C137.704 19.631 137.869 19.4907 138.2 19.4907L138.876 19.5632C139.372 19.5632 139.717 19.3117 139.91 18.8086C140.121 18.2474 140.227 17.188 140.227 15.6303L140.158 5.38424C140.158 3.78784 140.075 2.78645 139.91 2.3801C139.753 1.96406 139.588 1.70767 139.413 1.61092C139.248 1.50449 139.046 1.45128 138.807 1.45128L138.131 1.50933C137.8 1.50933 137.635 1.36904 137.635 1.08846C137.635 0.730477 137.888 0.551486 138.393 0.551486C138.899 0.551486 139.377 0.590187 139.827 0.667588C140.286 0.74499 140.764 0.78369 141.261 0.78369C141.757 0.78369 142.23 0.74499 142.681 0.667588C143.131 0.590187 143.604 0.551486 144.1 0.551486C144.606 0.551486 144.859 0.730477 144.859 1.08846C144.859 1.36904 144.693 1.50933 144.362 1.50933L143.701 1.45128C143.204 1.45128 142.86 1.70283 142.667 2.20594C142.455 2.7671 142.35 3.82654 142.35 5.38424L142.419 15.6303C142.419 17.188 142.506 18.1797 142.681 18.6054C142.864 19.0311 143.048 19.2972 143.232 19.4036C143.416 19.51 143.627 19.5632 143.866 19.5632L144.528 19.4907C144.859 19.4907 145.024 19.631 145.024 19.9115C145.024 20.2695 144.73 20.4485 144.142 20.4485C143.839 20.4485 143.517 20.4195 143.177 20.3614C142.028 20.1679 141.049 20.1341 140.24 20.2598C139.441 20.3856 138.894 20.4485 138.6 20.4485Z" fill="#505050"/>
<path d="M147.312 10.4057C147.312 8.94471 147.57 7.6047 148.084 6.38562C148.608 5.15688 149.311 4.10228 150.194 3.22184C151.085 2.33172 152.114 1.64478 153.282 1.16102C154.449 0.667588 155.708 0.420871 157.059 0.420871C158.41 0.420871 159.664 0.682101 160.822 1.20456C161.98 1.71735 162.973 2.42847 163.8 3.33794C165.537 5.2633 166.405 7.70629 166.405 10.6669C166.405 13.4727 165.509 15.8189 163.717 17.7056C161.888 19.631 159.563 20.5936 156.742 20.5936C153.985 20.5936 151.715 19.6213 149.932 17.6766C148.186 15.7609 147.312 13.3372 147.312 10.4057ZM149.67 9.57844C149.67 10.8362 149.863 12.0746 150.249 13.2937C150.644 14.5031 151.2 15.5577 151.917 16.4575C153.452 18.4119 155.391 19.3891 157.734 19.3891C159.545 19.3891 161.029 18.6731 162.187 17.2412C163.382 15.7706 163.979 13.8355 163.979 11.4361C163.979 8.60124 163.258 6.25017 161.815 4.38286C160.381 2.54457 158.566 1.62543 156.37 1.62543C154.559 1.62543 153.001 2.35107 151.696 3.80235C150.345 5.31168 149.67 7.23704 149.67 9.57844Z" fill="#505050"/>
<path d="M169.673 20.4485C169.075 20.4485 168.777 20.2695 168.777 19.9115C168.777 19.631 168.942 19.4907 169.273 19.4907L169.948 19.5632C170.5 19.5632 170.867 19.2391 171.051 18.5909C171.217 18.0394 171.299 17.0525 171.299 15.6303V5.41327C171.299 3.98134 171.235 3.05252 171.106 2.62681C170.978 2.19143 170.821 1.89634 170.638 1.74153C170.463 1.57706 170.233 1.49482 169.948 1.49482L169.273 1.56738C168.942 1.56738 168.777 1.42225 168.777 1.132C168.777 0.754665 169.075 0.565999 169.673 0.565999L171.479 0.78369C171.865 0.78369 172.209 0.754665 172.512 0.696614L185.209 16.2398V5.38424C185.209 3.97167 185.135 3.04285 184.988 2.59779C184.851 2.15273 184.69 1.8528 184.506 1.698C184.322 1.53352 184.083 1.45128 183.789 1.45128L183.114 1.50933C182.783 1.50933 182.617 1.36904 182.617 1.08846C182.617 0.730477 182.916 0.551486 183.513 0.551486C183.743 0.551486 184.051 0.585349 184.437 0.653075C184.924 0.740152 185.365 0.78369 185.76 0.78369C186.156 0.78369 186.542 0.74499 186.918 0.667588C187.295 0.590187 187.736 0.551486 188.242 0.551486C188.747 0.551486 189 0.730477 189 1.08846C189 1.36904 188.835 1.50933 188.504 1.50933L187.828 1.45128C187.268 1.45128 186.895 1.7754 186.712 2.42364C186.555 2.93642 186.477 3.92329 186.477 5.38424V20.0422C186.477 20.3711 186.45 20.5888 186.395 20.6952C186.339 20.8017 186.252 20.8549 186.133 20.8549C185.967 20.8549 185.705 20.6517 185.347 20.2453L172.637 4.74568V15.6303C172.637 17.0912 172.696 18.0346 172.816 18.4603C172.944 18.8763 173.096 19.1665 173.271 19.331C173.454 19.4858 173.693 19.5632 173.988 19.5632L174.649 19.4907C174.98 19.4907 175.146 19.631 175.146 19.9115C175.146 20.2695 174.879 20.4485 174.346 20.4485C173.822 20.4485 173.353 20.4098 172.94 20.3324C172.535 20.2647 172.14 20.2308 171.754 20.2308C171.368 20.2308 170.987 20.2647 170.61 20.3324C170.242 20.4098 169.93 20.4485 169.673 20.4485Z" fill="#505050"/>
</svg>
