<svg width="15" height="14" viewBox="0 0 15 14" fill="none" xmlns="http://www.w3.org/2000/svg">
<path d="M9.21032 4.65199L8.13 1.44192C7.9317 0.852694 7.0683 0.852693 6.87 1.44192L5.78968 4.65199C5.701 4.9155 5.44666 5.09391 5.15968 5.09391H1.66369C1.02199 5.09391 0.75518 5.88671 1.27433 6.25087L4.10264 8.2348C4.33481 8.39766 4.43196 8.68633 4.34328 8.94984L3.26296 12.1599C3.06466 12.7491 3.76318 13.2391 4.28233 12.875L7.11064 10.891C7.34281 10.7282 7.65719 10.7282 7.88936 10.891L10.7177 12.875C11.2368 13.2391 11.9353 12.7491 11.737 12.1599L11.2051 10.5794L10.6567 8.94984C10.568 8.68633 10.6652 8.39766 10.8974 8.2348L13.7257 6.25087C14.2448 5.88671 13.978 5.09391 13.3363 5.09391H9.84032C9.55334 5.09391 9.299 4.9155 9.21032 4.65199Z" fill="#F4A45F" stroke="#F4A45F" stroke-linecap="round"/>
</svg>
