<svg width="24" height="28" viewBox="0 0 24 28" fill="none" xmlns="http://www.w3.org/2000/svg">
<path d="M14.5715 9.9375V22.9375M9.42864 9.9375V22.9375M7.15973 3.36786H3.81891C3.56795 3.36786 3.32615 3.46222 3.14153 3.63223L0.942442 5.65718C0.607395 5.9657 0.825678 6.525 1.28113 6.525H22.8013C23.2456 6.525 23.4692 5.9889 23.1566 5.6732L21.1675 3.66426C20.9797 3.47458 20.7238 3.36786 20.4569 3.36786H16.8404M7.15973 3.36786L8.2806 1.48789C8.46099 1.18533 8.78727 1 9.13952 1H14.8606C15.2129 1 15.5391 1.18533 15.7195 1.48789L16.8404 3.36786M7.15973 3.36786H16.8404M20.874 6.525H3.42863V26.5C3.42863 26.7761 3.65249 27 3.92863 27H20.374C20.6502 27 20.874 26.7761 20.874 26.5V23.75V21.511V17.6413V6.525Z" stroke="#960202" stroke-linecap="round"/>
</svg>
